<svg width="504" height="110" viewBox="0 0 504 110" fill="none" xmlns="http://www.w3.org/2000/svg">
<path d="M498.7 74.7363L503.1 80.8363C500.1 84.0363 494.3 86.9363 487.7 86.9363C473.6 86.9363 467.7 77.7363 467.7 64.9363C467.7 52.8363 474 42.9363 486.8 42.9363C499.2 42.9363 504 51.8363 504 60.9363C504 63.0363 503.8 66.1363 503.4 67.8363H477.1C477.3 74.5363 480.6 78.9363 487.7 78.9363C491.3 78.8363 495.5 77.6363 498.7 74.7363ZM495.3 60.9363C495.4 60.3363 495.4 59.7363 495.4 59.3363C495.4 53.7363 491.9 50.4363 486.8 50.4363C480.2 50.4363 477.5 55.0363 477.1 60.9363H495.3Z" fill="#101D2D"/>
<path d="M455.1 72.8362C455.1 76.3362 456.8 78.2362 460.2 78.2362C461.9 78.2362 464 77.7362 465.6 77.1362L466.1 85.2362C464 86.0362 460.5 86.8362 457.3 86.8362C449.1 86.8362 445.8 81.5362 445.8 74.0362V51.6362H438V44.6362L445.7 43.7362V33.3362L455 31.8362V43.8362H465.3V51.7362H455V72.8362H455.1Z" fill="#101D2D"/>
<path d="M426.1 85.9363V80.8363C423.4 83.8363 419 86.9363 412.4 86.9363C404.7 86.9363 399.8 82.3363 399.8 74.8363C399.8 65.9363 407.6 61.9363 419.7 61.0363L425.6 60.4363V57.1363C425.6 52.9363 423.8 50.5363 417.9 50.5363C412.7 50.5363 410.2 52.3363 410.2 55.0363V57.0363H402C401.9 56.1363 401.8 55.1363 401.8 54.1363C401.8 47.6363 407.7 42.9363 418.3 42.9363C428.5 42.9363 434.7 47.3363 434.7 56.9363V85.9363H426.1ZM415.5 79.6363C419.6 79.6363 423.2 77.7363 425.5 75.3363V66.3363L419.7 67.1363C413 68.0363 409.2 70.1363 409.2 74.3363C409.2 77.7363 411.4 79.6363 415.5 79.6363Z" fill="#101D2D"/>
<path d="M386.4 72.8362C386.4 76.3362 388.1 78.2362 391.5 78.2362C393.2 78.2362 395.3 77.7362 396.9 77.1362L397.4 85.2362C395.3 86.0362 391.8 86.8362 388.6 86.8362C380.4 86.8362 377.1 81.5362 377.1 74.0362V51.6362H369.4V44.6362L377.1 43.7362V33.3362L386.4 31.8362V43.8362H396.7V51.7362H386.4V72.8362Z" fill="#101D2D"/>
<path d="M361.9 37.3362C359.4 33.5362 355.3 31.2362 349.3 31.2362C342.4 31.2362 338.9 35.2362 338.9 40.5362C338.9 44.9362 341.3 47.3362 346.6 49.0362L354.7 51.4362C364.9 54.5362 369.7 59.8362 369.7 68.1362C369.7 79.6362 361 86.8362 347.9 86.8362C334 86.8362 328.5 80.2362 326 75.2362L333.1 69.7362C335.3 74.2362 338.6 78.2362 347.9 78.2362C355.4 78.2362 359.3 74.4362 359.3 68.9362C359.3 64.2362 356.3 61.8362 351.1 60.2362L343 57.8362C332.9 54.7362 328.4 49.0362 328.4 41.1362C328.4 31.5362 334.7 22.6362 349.2 22.6362C359.6 22.6362 365.8 27.0362 368.9 31.8362L361.9 37.3362Z" fill="#101D2D"/>
<path d="M311.3 86.5362L299.1 66.9362L293 72.9362V86.5362H283.8V22.8362H293V61.7362L310.7 44.4362H322.1L305.6 60.4362L321.6 86.5362H311.3Z" fill="#008AFF"/>
<path d="M263.4 42.9363C270.9 42.9363 276.7 45.9363 279.7 51.8363L273.1 56.5363C271.2 53.1363 268.3 51.1363 264.1 51.1363C256.6 51.1363 253.9 56.9363 253.9 64.8363C253.9 72.7363 256.7 78.5363 264.1 78.5363C268.3 78.5363 271.3 76.5363 273.2 73.1363L279.7 77.8363C276.7 83.7363 270.8 86.7363 263.4 86.7363C249.9 86.7363 244.3 76.8363 244.3 64.7363C244.3 52.8363 249.9 42.9363 263.4 42.9363Z" fill="#008AFF"/>
<path d="M230.4 85.9363V80.8363C227.7 83.8363 223.3 86.9363 216.7 86.9363C209 86.9363 204.1 82.3363 204.1 74.8363C204.1 65.9363 211.9 61.9363 224 61.0363L229.9 60.4363V57.1363C229.9 52.9363 228.1 50.5363 222.2 50.5363C217 50.5363 214.5 52.3363 214.5 55.0363V57.0363H206.4C206.3 56.1363 206.2 55.1363 206.2 54.1363C206.2 47.6363 212.1 42.9363 222.7 42.9363C232.9 42.9363 239.1 47.3363 239.1 56.9363V85.9363H230.4ZM219.8 79.6363C223.9 79.6363 227.5 77.7363 229.8 75.3363V66.3363L224 67.1363C217.3 68.0363 213.5 70.1363 213.5 74.3363C213.6 77.7363 215.7 79.6363 219.8 79.6363Z" fill="#008AFF"/>
<path d="M190.6 72.8362C190.6 76.3362 192.3 78.2362 195.7 78.2362C197.4 78.2362 199.5 77.7362 201.1 77.1362L201.6 85.2362C199.5 86.0362 196 86.8362 192.8 86.8362C184.6 86.8362 181.3 81.5362 181.3 74.0362V51.6362H173.6V44.6362L181.3 43.7362V33.3362L190.6 31.8362V43.8362H200.9V51.7362H190.6V72.8362Z" fill="#008AFF"/>
<path d="M166.2 37.3362C163.7 33.5362 159.6 31.2362 153.6 31.2362C146.7 31.2362 143.2 35.2362 143.2 40.5362C143.2 44.9362 145.6 47.3362 150.9 49.0362L159 51.4362C169.2 54.5362 174 59.8362 174 68.1362C174 79.6362 165.3 86.8362 152.2 86.8362C138.3 86.8362 132.8 80.2362 130.3 75.2362L137.4 69.7362C139.6 74.2362 142.9 78.2362 152.2 78.2362C159.7 78.2362 163.6 74.4362 163.6 68.9362C163.6 64.2362 160.6 61.8362 155.4 60.2362L147.3 57.8362C137.2 54.7362 132.7 49.0362 132.7 41.1362C132.7 31.5362 139 22.6362 153.5 22.6362C163.9 22.6362 170.1 27.0362 173.2 31.8362L166.2 37.3362Z" fill="#008AFF"/>
<circle cx="54.868" cy="54.868" r="54.868" fill="white"/>
<path d="M52.8 81.2364L30 68.0364L20 73.7364L52.8 92.6364C54.1 93.4364 55.8 93.4364 57.1 92.6364L89.9 73.7364L80 68.0364L57.2 81.2364C55.8 82.0364 54.2 82.0364 52.8 81.2364Z" fill="#0F1D2D"/>
<path d="M52.8 60.9363L30 47.7363L20 53.5363L52.8 72.4363C54.1 73.2363 55.8 73.2363 57.1 72.4363L89.9 53.5363L80 47.7363L57.2 60.9363C55.8 61.7363 54.2 61.7363 52.8 60.9363Z" fill="#0F1D2D"/>
<path d="M20 33.6363L55 13.4363L90 33.6363L57.2 52.5363C55.9 53.3363 54.2 53.3363 52.9 52.5363L20 33.6363Z" fill="#0F1D2D"/>
<path d="M12.8 72.4362C12.8 70.9362 13.6 69.4362 15 68.7362L22.8 64.2362L15.2 59.8362C13.9 59.0362 13 57.6362 13 56.1362V52.1362C13 50.6362 13.8 49.1362 15.2 48.4362L22.7 44.0362L15.2 39.7362C13.9 38.9362 13 37.5362 13 36.0362V32.6362C13 31.0362 13.8 29.6362 15.2 28.8362L51 8.13623V0.13623C22.5 2.13623 0 25.8362 0 54.8362C0 64.5362 2.5 73.6362 6.9 81.5362L12.8 78.1362V72.4362V72.4362Z" fill="#667781"/>
<path d="M94.3999 28.5362C95.6999 29.3362 96.6 30.7362 96.6 32.3362V35.7362C96.6 37.2362 95.7999 38.7362 94.3999 39.4362L86.8999 43.7362L94.3999 48.1362C95.7999 48.8362 96.6 50.3362 96.6 51.8362V55.7362C96.6 57.2362 95.7999 58.7362 94.3999 59.4362L86.7999 63.8362L94.6 68.3362C95.9 69.1362 96.7999 70.5362 96.7999 72.0362V77.7362L102.8 81.2362C107.2 73.3362 109.7 64.2362 109.7 54.6362C109.7 25.6362 87.2 2.13623 58.7 0.13623V7.83623L94.3999 28.5362Z" fill="#667781"/>
<path d="M57.2 100.836C55.9 101.636 54.1999 101.636 52.8999 100.836L20.1 82.0361L14.1 85.4361L13.4 85.8361L10.7 87.4361C20.7 100.936 36.7999 109.736 54.8999 109.736C72.9999 109.736 88.9999 101.036 98.9999 87.5361L89.7 82.2361L57.2 100.836Z" fill="#667781"/>
</svg>
